#!OML:ASF E:\inclinewalkrobotboard\Project 1\Capture day 1\Session 1\subject1.ASF
:FULLY-SPECIFIED
:DEGREES
48
root 6.93754 16.5827 34.0396 -171.106 1.90901 180.058
lowerback -10.2843 1.40481 -6.03511
upperback 0.662226 2.56817 1.15539
thorax 6.16382 1.05317 5.01726
lowerneck -11.1166 -0.0116911 -3.47229
upperneck 25.2901 -2.30008 5.80712
head 9.94011 -1.31607 2.26268
rclavicle -8.51047e-016 6.11263e-015
rhumerus -41.7225 -29.1759 -70.1173
rradius 25.7042
rwrist 16.8441
rhand -18.5653 -37.3435
rfingers 7.12502
rthumb 7.72469 -67.1824
lclavicle -8.51047e-016 6.11263e-015
lhumerus -28.0013 15.9998 82.444
lradius 14.426
lwrist -35.5072
lhand -30.3121 -24.8939
lfingers 7.12502
lthumb -3.61889 5.05516
rfemur -5.88272 2.82293 20.0886
rtibia 10.427
rfoot -14.7567 -4.22628
rtoes -26.837
lfemur -5.96063 -7.7357 -19.7556
ltibia 9.14984
lfoot -14.5166 -2.38571
ltoes -31.3752
49
root 6.93699 16.5845 34.0395 -171.158 1.79938 179.754
lowerback -10.2681 1.36269 -6.34943
upperback 0.674771 2.55391 1.09128
thorax 6.16051 1.03651 5.12473
lowerneck -11.2143 0.0980155 -3.36865
upperneck 25.0333 -2.10453 5.83988
head 9.85585 -1.193 2.27881
rclavicle -7.38609e-015 1.54058e-015
rhumerus -41.3964 -28.7546 -70.6808
rradius 26.0854
rwrist 16.5699
rhand -18.0532 -37.3384
rfingers 7.12502
rthumb 8.21902 -67.1586
lclavicle -7.38609e-015 1.54058e-015
lhumerus -27.6023 15.1558 83.2308
lradius 14.6771
lwrist -34.7716
lhand -30.1811 -24.8751
lfingers 7.12502
lthumb -3.49237 5.07606
rfemur -5.75761 2.60137 19.7114
rtibia 10.3573
rfoot -14.8037 -4.15216
rtoes -26.646
lfemur -5.90196 -7.87239 -20.1784
ltibia 9.16593
lfoot -14.562 -2.44944
ltoes -31.272
50
root 6.93627 16.5837 34.0404 -171.208 1.82424 179.747
lowerback -10.2567 1.39231 -6.34135
upperback 0.6845 2.59176 1.08784
thorax 6.15984 1.05508 5.1216
lowerneck -11.1666 0.147223 -3.38954
upperneck 24.859 -2.01614 5.91202
head 9.78022 -1.13935 2.31694
rclavicle -1.30701e-014 2.23633e-015
rhumerus -41.0732 -28.2467 -71.3331
rradius 26.5093
rwrist 16.0752
rhand -17.7685 -37.5209
rfingers 7.12502
rthumb 8.49374 -67.3301
lclavicle -1.30701e-014 2.23633e-015
lhumerus -27.2335 14.1159 84.0582
lradius 14.9794
lwrist -33.7985
lhand -30.1055 -24.8297
lfingers 7.12502
lthumb -3.41931 5.12262
rfemur -5.70166 2.57567 19.7032
rtibia 10.3512
rfoot -14.806 -4.14913
rtoes -26.7578
lfemur -5.81141 -7.86449 -20.2013
ltibia 9.11883
lfoot -14.5663 -2.44464
ltoes -31.1093
51
root 6.93668 16.5821 34.0448 -171.261 1.86675 180.018
lowerback -10.1705 1.48904 -6.05928
upperback 0.664115 2.6756 1.1531
thorax 6.08654 1.10807 5.03831
lowerneck -11.0616 0.12919 -3.39167
upperneck 24.764 -2.02458 5.88723
head 9.72639 -1.14562 2.30659
rclavicle -8.52289e-015 -1.54555e-014
rhumerus -40.8656 -27.9297 -71.8272
rradius 26.8809
rwrist 15.5574
rhand -17.5223 -37.2998
rfingers 7.12502
rthumb 8.73136 -67.0992
lclavicle -8.52289e-015 -1.54555e-014
lhumerus -26.9876 12.6669 84.9933
lradius 15.4204
lwrist -32.4999
lhand -28.4302 -20.9501
lfingers 7.12502
lthumb -1.80138 9.02209
rfemur -5.69906 2.71314 20.0465
rtibia 10.4006
rfoot -14.7682 -4.22718
rtoes -26.821
lfemur -5.76039 -7.81767 -19.8355
ltibia 9.08227
lfoot -14.5284 -2.36343
ltoes -31.14
52
root 6.93727 16.5833 34.0476 -171.292 1.84823 179.991
lowerback -10.1158 1.52639 -6.11331
upperback 0.631509 2.72716 1.17026
thorax 6.01106 1.13559 5.09066
lowerneck -10.9795 0.108342 -3.38707
upperneck 24.7111 -2.00798 5.73852
head 9.68959 -1.15241 2.25516
rclavicle 1.06039e-014 -2.28602e-015
rhumerus -40.6983 -27.6414 -72.1936
rradius 27.1788
rwrist 15.0017
rhand -17.2015 -36.3792
rfingers 7.12502
rthumb 9.04094 -66.1655
lclavicle 1.06039e-014 -2.28602e-015
lhumerus -26.7839 11.6226 85.7758
lradius 15.7547
lwrist -31.5935
lhand -29.37 -24.32
lfingers 7.12502
lthumb -2.709 5.64251
rfemur -5.69761 2.69887 20.0125
rtibia 10.4385
rfoot -14.7489 -4.22676
rtoes -26.9205
lfemur -5.69076 -7.84279 -19.8591
ltibia 8.96237
lfoot -14.4578 -2.30489
ltoes -31.3889
53
root 6.93747 16.5858 34.0469 -171.274 1.79148 179.706
lowerback -10.1586 1.46911 -6.4291
upperback 0.603683 2.69468 1.13526
thorax 5.9986 1.11173 5.22909
lowerneck -10.8571 0.134773 -3.47648
upperneck 24.6001 -1.91697 5.66425
head 9.62147 -1.12469 2.25403
rclavicle 1.57847e-014 1.04362e-014
rhumerus -40.4698 -27.1022 -72.7184
rradius 27.4613
rwrist 14.4217
rhand -17.2568 -35.8857
rfingers 7.12502
rthumb 8.98759 -65.6743
lclavicle 1.57847e-014 1.04362e-014
lhumerus -26.5578 11.3019 86.2754
lradius 15.8707
lwrist -31.3205
lhand -27.7483 -23.2178
lfingers 7.12502
lthumb -1.14278 6.75888
rfemur -5.6793 2.54384 19.6582
rtibia 10.3985
rfoot -14.7808 -4.13565
rtoes -26.8801
lfemur -5.64533 -7.82797 -20.2321
ltibia 8.82851
lfoot -14.3492 -2.3912
ltoes -31.4282
54
root 6.93813 16.5878 34.0488 -171.244 1.72849 179.62
lowerback -10.1563 1.42317 -6.52077
upperback 0.570844 2.64462 1.13415
thorax 5.96552 1.08689 5.27184
lowerneck -10.649 0.134145 -3.58441
upperneck 24.3526 -1.85791 5.63388
head 9.4912 -1.10669 2.26638
rclavicle -2.77056e-015 1.41137e-014
rhumerus -40.1809 -26.4463 -73.4461
rradius 27.6609
rwrist 13.8014
rhand -17.4119 -36.4575
rfingers 7.12502
rthumb 8.83792 -66.2525
lclavicle -2.77056e-015 1.41137e-014
lhumerus -26.3601 11.0288 86.6835
lradius 15.9969
lwrist -31.1185
lhand -26.8638 -22.9478
lfingers 7.12502
lthumb -0.28853 7.0317
rfemur -5.68046 2.49201 19.5598
rtibia 10.34
rfoot -14.8008 -4.12614
rtoes -26.7195
lfemur -5.80795 -7.89039 -20.3529
ltibia 9.04977
lfoot -14.4147 -2.44564
ltoes -31.2614
55
root 6.93914 16.5889 34.0526 -171.232 1.69767 179.686
lowerback -10.1115 1.42024 -6.45531
upperback 0.546415 2.62772 1.16116
thorax 5.91782 1.0831 5.25827
lowerneck -10.3371 0.0653271 -3.66935
upperneck 24.0003 -1.86931 5.50994
head 9.30832 -1.12823 2.23342
rclavicle 6.7711e-016 -1.54058e-014
rhumerus -39.9069 -26.0123 -74.0337
rradius 27.7805
rwrist 13.405
rhand -16.8211 -36.7039
rfingers 7.12502
rthumb 9.40792 -66.4739
lclavicle 6.7711e-016 -1.54058e-014
lhumerus -26.197 10.3 87.2269
lradius 16.2464
lwrist -30.6541
lhand -26.5018 -22.4454
lfingers 7.12502
lthumb 0.0611287 7.53437
rfemur -5.69795 2.56952 19.6542
rtibia 10.3099
rfoot -14.8054 -4.23237
rtoes -26.8261
lfemur -6.09113 -8.10769 -20.2913
ltibia 9.56227
lfoot -14.729 -2.35608
ltoes -31.2094
56
root 6.94041 16.5895 34.0551 -171.226 1.64794 179.743
lowerback -10.0878 1.41052 -6.40211
upperback 0.52819 2.60494 1.18852
thorax 5.88897 1.075 5.25242
lowerneck -10.9343 0.502554 -2.86903
upperneck 23.7617 -1.13175 4.90452
head 9.296 -0.730038 1.972
rclavicle -7.70912e-015 -2.20651e-014
rhumerus -39.7034 -25.8436 -74.3468
rradius 27.8821
rwrist 13.5499
rhand -15.8455 -36.3868
rfingers 7.12502
rthumb 10.3492 -66.1121
lclavicle -7.70912e-015 -2.20651e-014
lhumerus -26.1136 8.9986 87.9964
lradius 16.5955
lwrist -29.8995
lhand -26.6933 -21.1679
lfingers 7.12502
lthumb -0.123849 8.81184
rfemur -5.70909 2.61154 19.7407
rtibia 10.3151
rfoot -14.8079 -4.356
rtoes -26.8416
lfemur -6.15572 -8.11189 -20.2072
ltibia 9.67621
lfoot -14.7706 -2.39902
ltoes -31.3112
